<svg id="Layer_1" data-name="Layer 1" xmlns="http://www.w3.org/2000/svg" viewBox="0 0 115 115"><defs><style>.cls-1{fill:#d6d6d6;}</style></defs><title>right</title><path class="cls-1" d="M335.37,816a57.5,57.5,0,1,1,57.5-57.5A57.57,57.57,0,0,1,335.37,816Zm0-108.24a50.74,50.74,0,1,0,50.74,50.74A50.79,50.79,0,0,0,335.37,707.76Z" transform="translate(-277.87 -701)"/><rect class="cls-1" x="26.69" y="54.12" width="57.5" height="6.76"/><polygon class="cls-1" points="88.31 57.5 83.53 52.72 83.53 52.72 69.7 38.9 64.92 43.68 78.74 57.5 64.92 71.32 69.7 76.1 83.53 62.28 83.53 62.28 88.31 57.5 88.31 57.5 88.31 57.5"/></svg>